<svg xmlns="http://www.w3.org/2000/svg" viewBox="0 0 760 520" role="img" aria-labelledby="title desc">
  <title id="title">スタッフがスマホで希望提出する線画イラスト</title>
  <desc id="desc">複数のスタッフがスマートフォンでシフト希望を提出している手描き風イラスト</desc>
  <rect width="760" height="520" fill="#fffdfa"/>
  <g fill="none" stroke="#2a211d" stroke-linecap="round" stroke-linejoin="round" stroke-width="8">
    <path d="M115 357c-21-15-35-43-35-77 0-63 45-107 107-107 64 0 107 44 107 107 0 31-11 58-30 74"/>
    <path d="M101 237c36 7 78-8 108-38 15 26 38 42 72 48"/>
    <circle cx="151" cy="277" r="4" fill="#2a211d" stroke="none"/>
    <circle cx="229" cy="277" r="4" fill="#2a211d" stroke="none"/>
    <path d="M172 318c17 10 37 10 55 0"/>
    <path d="M101 509c5-55 23-101 58-130 22 14 67 14 91 0 36 30 55 75 60 130"/>
    <path d="M165 383l40 89 37-89"/>
    <rect x="238" y="318" width="92" height="152" rx="18"/>
    <path d="M265 342h38"/>
    <path d="M262 392l14 14 33-42"/>
    <path d="M445 358c-20-17-32-44-32-77 0-62 44-107 107-107 63 0 107 45 107 107 0 33-13 61-35 78"/>
    <path d="M432 236c32 8 77-3 109-33 13 25 35 40 69 47"/>
    <circle cx="482" cy="278" r="4" fill="#2a211d" stroke="none"/>
    <circle cx="559" cy="278" r="4" fill="#2a211d" stroke="none"/>
    <path d="M504 319c16 9 35 9 52 0"/>
    <path d="M431 510c5-55 23-101 59-130 22 14 67 14 91 0 36 30 55 75 60 130"/>
    <path d="M494 383l40 89 37-89"/>
    <rect x="375" y="320" width="92" height="152" rx="18"/>
    <path d="M402 344h38"/>
    <path d="M399 394l14 14 33-42"/>
    <path d="M288 94h183c20 0 36 16 36 36v96c0 20-16 36-36 36H347l-46 45v-45h-13c-20 0-36-16-36-36v-96c0-20 16-36 36-36z"/>
    <circle cx="325" cy="176" r="24"/>
    <path d="M314 211c5-21 18-31 36-31 18 0 31 10 36 31"/>
    <rect x="407" y="142" width="56" height="69" rx="7"/>
    <path d="M418 164h34"/>
    <path d="M418 184h21"/>
    <circle cx="384" cy="105" r="27" fill="#fffdfa"/>
    <path d="M371 105l10 11 22-28"/>
  </g>
  <path d="M158 393l46 103 44-103c18 4 36 18 48 39v77H113v-77c11-20 27-34 45-39z" fill="#1f9ab8"/>
  <path d="M489 393l45 103 45-103c17 4 35 18 47 39v77H444v-77c11-20 27-34 45-39z" fill="#1f9ab8"/>
  <g fill="none" stroke="#1f9ab8" stroke-linecap="round" stroke-width="7">
    <path d="M607 116l23-24"/>
    <path d="M631 148l35-9"/>
    <path d="M580 93l-5-32"/>
    <path d="M184 137l-18-28"/>
    <path d="M145 157l-31-11"/>
  </g>
</svg>
